<?xml version="1.0" encoding="UTF-8"?>
<svg id="Layer_1" data-name="Layer 1" xmlns="http://www.w3.org/2000/svg" version="1.1" viewBox="0 0 900 900">
  <defs>
    <style>
      .cls-1, .cls-2, .cls-3, .cls-4, .cls-5 {
        stroke-width: 0px;
      }

      .cls-1, .cls-4 {
        fill: #000;
      }

      .cls-2, .cls-3, .cls-5 {
        fill: #fff;
      }

      .cls-2, .cls-4 {
        fill-rule: evenodd;
      }

      .cls-5 {
        display: none;
      }
    </style>
  </defs>
  <g id="Identity">
    <rect class="cls-5" width="900" height="900"/>
    <g id="Icon">
      <path id="Combined-Shape" class="cls-1" d="M732.4,445.2c4.2,0,7.7,3.2,7.9,7.4,0,0,0,0,0,0,.8,19.2.7,29-2.2,47.6v.9c-.1.6-.2,1.1-.3,1.7,0,0,0,0,0,0-3.9,19.1-9.8,38-17.4,55.9-7.5,17.7-16.7,34.7-27.5,50.6-10.7,15.8-22.9,30.6-36.4,44.1-13.5,13.5-28.4,25.7-44.2,36.3-16,10.8-33,20-50.7,27.5-18,7.6-36.9,13.5-56.1,17.4-.2,0-.4,0-.5.1-4.2.8-8.2-1.8-9.2-5.9l-9.6-40.2c-1-4.3,1.8-8.7,6.2-9.5,16.1-3.2,31.8-8,47-14.4,14.3-6,28.1-13.5,41-22.2,12.8-8.6,24.8-18.5,35.7-29.4,10.9-10.9,20.8-22.9,29.5-35.7,8.7-12.9,16.2-26.6,22.2-40.9,6.4-15,11.1-30.5,14.3-46.3,0,0,0,0,0-.1,1.3-12.1,1.6-24.2,1.1-36.3-.2-4.5,3.3-8.2,7.8-8.3l41.5-.5ZM200.4,484.2c4.4-1,8.7,1.8,9.6,6.1,3.2,15.8,7.9,31.3,14.3,46.3,6,14.3,13.5,28,22.2,40.9,8.6,12.8,18.6,24.7,29.5,35.7,10.9,10.9,22.9,20.8,35.7,29.4,12.9,8.7,26.7,16.2,41,22.2,15.2,6.4,30.9,11.2,47,14.4,4.4.9,7.2,5.2,6.2,9.5l-9.6,40.2c-1,4.1-5.1,6.7-9.2,5.9-.2,0-.4,0-.5-.1-19.2-3.9-38-9.8-56.1-17.4-17.7-7.5-34.8-16.7-50.7-27.5-15.8-10.6-30.7-22.9-44.2-36.3-13.5-13.5-25.8-28.3-36.4-44.1-10.8-15.9-20-32.9-27.5-50.6-7.6-18-13.5-36.8-17.4-55.9,0,0,0,0,0,0-.8-4.1,1.8-8.2,5.9-9.1l40.4-9.6ZM387,151.2c4.2-.8,8.2,1.8,9.2,5.9l9.6,40.2c1,4.3-1.8,8.7-6.2,9.5-16.1,3.2-31.7,8-46.9,14.4-14.3,6-28.1,13.5-40.9,22.2-12.8,8.6-24.8,18.5-35.7,29.4-10.9,10.9-20.8,22.9-29.5,35.6-8.7,12.9-16.2,26.6-22.2,40.9-6.5,15.3-11.3,31.2-14.5,47.4-.9,4.4-5.2,7.2-9.6,6.2l-40.3-9.5c-4.1-1-6.7-5.1-5.9-9.2,0-.4.1-.7.2-1.1,3.9-19.1,9.8-37.9,17.4-55.9,7.5-17.6,16.7-34.7,27.5-50.6,10.7-15.8,22.9-30.6,36.4-44,13.5-13.5,28.3-25.7,44.1-36.3,15.9-10.8,33-20,50.7-27.5,18-7.6,36.9-13.4,56-17.4.2,0,.4,0,.5-.1ZM495.8,157.1c1-4.1,5.1-6.7,9.2-5.9.2,0,.4,0,.5.1,19.2,3.9,38,9.8,56,17.4,17.7,7.5,34.7,16.7,50.7,27.5,9.7,6.6,16.7,11.3,13.2,13.9h-26.4s-1.1,0-1.1,0c-13.9.2-26.8,4.8-37.4,12.4-8.8,1.4-11.4,2.9-21.2-1.2-15.2-6.4-30.9-11.2-46.9-14.4-4.4-.9-7.2-5.2-6.2-9.5l9.6-40.2Z"/>
      <path id="Combined-Shape-2" data-name="Combined-Shape" class="cls-4" d="M447,128c17.1,0,31,13.9,31,31s-.3,4.6-.7,6.8c0,.5-.2.9-.3,1.4h0c-.5,1.9-1.3,3.9-2.2,5.7l-22.2,58.4c-.6,1.6-1.9,2.9-3.5,3.5-3.1,1.2-6.6-.4-7.7-3.5l-22.2-58.4c-.9-1.8-1.6-3.8-2.2-5.8-.1-.4-.3-.8-.3-1.3-.5-2.2-.7-4.5-.7-6.8,0-17.1,13.9-31,31-31Z"/>
      <path id="Combined-Shape-3" data-name="Combined-Shape" class="cls-4" d="M447,772.1c17.1,0,31-13.9,31-31s-.3-4.6-.7-6.8c0-.5-.2-.9-.3-1.4h0c-.5-1.9-1.3-3.9-2.2-5.7l-22.2-58.4c-.6-1.6-1.9-2.9-3.5-3.5-3.1-1.2-6.6.4-7.7,3.5l-22.2,58.4c-.9,1.8-1.6,3.8-2.2,5.8-.1.4-.3.8-.3,1.3-.5,2.2-.7,4.5-.7,6.8,0,17.1,13.9,31,31,31Z"/>
      <path id="Combined-Shape-4" data-name="Combined-Shape" class="cls-4" d="M116.5,443.5c0-17.1,13.9-31,31-31s4.6.3,6.8.7c.5,0,.9.2,1.4.3h0c2,.5,3.9,1.2,5.8,2.2l58.4,22.2c1.6.6,2.9,1.9,3.5,3.5,1.2,3.1-.4,6.6-3.5,7.7l-58.4,22.2c-1.8.9-3.8,1.6-5.8,2.2-.4.1-.8.3-1.3.3-2.2.5-4.5.7-6.8.7-17.1,0-31-13.9-31-31Z"/>
      <path id="Combined-Shape-5" data-name="Combined-Shape" class="cls-4" d="M702,235c22.6,0,41,18.4,41,41v103c0,22.6-18.4,41-41,41h-37.1l-67,67c-20,65.2-80.2,112.8-151.7,114h-2.7c-89.2,0-161.5-72.3-161.5-161.5s72.3-161.5,161.5-161.5,85.3,18.2,114.5,47.6v-49.6c0-22.6,18.4-41,41-41h103Z"/>
      <path id="Combined-Shape-6" data-name="Combined-Shape" class="cls-2" d="M691.6,283.4l-.7,89.8-28.9-28.9-172,172c-30.7,30.7-80.4,30.7-111,0l-11-11c-12.6-12.6-18.7-29.2-18.4-45.7l-4.8-44,75.1,75.1c8.9,8.9,23.2,9,32.2.3l.3-.3,178-178-28.6-28.6,89.8-.7Z"/>
      <rect id="Rectangle" class="cls-3" x="404" y="365" width="65" height="65" rx="8" ry="8" transform="translate(-153.2 425.1) rotate(-45)"/>
    </g>
  </g>
</svg>