<?xml version="1.0" encoding="UTF-8"?>
<svg xmlns="http://www.w3.org/2000/svg" version="1.1" viewBox="0 0 2688 900">
  <defs>
    <style>
      .cls-1 {
        isolation: isolate;
        opacity: 0;
      }

      .cls-2 {
        fill: none;
        stroke: #0f61ff;
        stroke-linecap: round;
        stroke-linejoin: round;
        stroke-width: 35.5px;
      }

      .cls-3 {
        fill: #fff;
      }
    </style>
  </defs>
  <!-- Generator: Adobe Illustrator 28.7.1, SVG Export Plug-In . SVG Version: 1.2.0 Build 142)  -->
  <g>
    <g id="Layer_1">
      <g id="Identity-Type">
        <rect class="cls-3" width="2688" height="900"/>
        <g id="Card">
          <path id="Shape" d="M863.5,597.5c-45.2,0-82.5-14.9-112.1-44.7-29.3-29.8-43.9-66.5-43.9-109.9s14.6-80.1,43.9-109.9c29.6-29.8,66.9-44.7,112.1-44.7s52.3,6.5,75,19.6c23,13.1,40.9,30.7,53.7,52.8l-34.5,20c-8.5-16.5-21.3-29.5-38.4-39.2-16.8-9.9-35.4-14.9-55.8-14.9-34.4,0-62.5,11.1-84.4,33.2-21.6,22.2-32.4,49.8-32.4,83.1s10.8,60.5,32.4,82.6c21.9,22.2,50,33.2,84.4,33.2s39.1-4.8,55.8-14.5c17-9.9,29.8-23,38.4-39.2l34.5,19.6c-12.5,22.2-30.3,39.9-53.3,53.2-23,13.1-48.2,19.6-75.4,19.6ZM1140.7,373.5c25,0,45,8,60.1,23.9,15.1,15.6,22.6,36.9,22.6,63.9v130.8h-37.1v-128.7c0-17.3-4.7-30.7-14.1-40-9.4-9.7-22.3-14.5-38.8-14.5s-33.4,5.8-44.8,17.5c-11.4,11.4-17,29-17,52.8v112.9h-37.1v-298.2h37.1v115.9c15.1-24.1,38.1-36.2,69-36.2ZM1301.1,502.5c3.7,19,12.4,33.8,26,44.3,13.9,10.5,31,15.8,51.1,15.8s48.6-10.4,61.4-31.1l31.5,17.9c-20.7,32.1-52,48.1-93.8,48.1s-61.4-10.5-82.7-31.5c-21-21.3-31.5-48.1-31.5-80.5s10.4-58.8,31.1-80.1,47.6-31.9,80.6-31.9,56.7,11.1,76.3,33.2c19.9,21.9,29.8,48.3,29.8,79.2s-.4,10.9-1.3,16.6h-178.6ZM1374.8,408.4c-19.9,0-36.4,5.7-49.4,17-13.1,11.1-21.2,26-24.3,44.7h142.4c-3.1-20.2-11.1-35.5-23.9-46-12.8-10.5-27.7-15.8-44.8-15.8ZM1623.3,597.5c-32.1,0-58.8-10.6-80.1-31.9-21.3-21.6-32-48.3-32-80.1s10.7-58.4,32-79.7c21.3-21.6,48-32.4,80.1-32.4s39.9,5.1,56.7,15.3c16.8,9.9,29.3,23.4,37.5,40.5l-31.1,17.9c-5.4-11.4-13.8-20.4-25.1-27.3-11.1-6.8-23.7-10.2-37.9-10.2-21.3,0-39.2,7.2-53.7,21.7-14.2,14.5-21.3,32.5-21.3,54.1s7.1,39.2,21.3,53.7c14.5,14.5,32.4,21.7,53.7,21.7s27-3.3,38.4-9.8c11.4-6.8,20-15.9,26-27.3l31.5,18.3c-9.1,16.8-22.2,30.2-39.2,40.5-17,9.9-35.9,14.9-56.7,14.9ZM1936.2,592h-46l-97.2-101v101h-37.1v-298.2h37.1v179.3l92.1-94.1h47.7l-101.9,103.1,105.3,109.9ZM2131,565.2c-21.9,21.6-48.4,32.4-79.7,32.4s-57.8-10.8-79.7-32.4c-21.6-21.6-32.4-48.1-32.4-79.7s10.8-58.1,32.4-79.7c21.9-21.6,48.4-32.4,79.7-32.4s57.8,10.8,79.7,32.4,32.8,48.1,32.8,79.7-10.9,58.1-32.8,79.7ZM2051.2,561.3c21.3,0,39.2-7.2,53.7-21.7,14.5-14.5,21.7-32.5,21.7-54.1s-7.2-39.6-21.7-54.1c-14.5-14.5-32.4-21.7-53.7-21.7s-38.8,7.2-53.3,21.7c-14.5,14.5-21.7,32.5-21.7,54.1s7.2,39.6,21.7,54.1c14.5,14.5,32.3,21.7,53.3,21.7ZM2354.5,379h37.1v213h-37.1v-30.7c-15.1,24.1-38.1,36.2-69,36.2s-45-7.8-60.1-23.4c-15.1-15.9-22.6-37.3-22.6-64.3v-130.8h37.1v128.7c0,17.3,4.7,30.8,14.1,40.5,9.4,9.4,22.3,14.1,38.8,14.1s33.4-5.7,44.8-17c11.4-11.6,17-29.4,17-53.3v-112.9ZM2564,414.8h-56.7v115.4c0,10.5,2,18,6,22.6,4.3,4.3,10.7,6.5,19.2,6.8,8.5,0,19-.3,31.5-.9v33.2c-32.4,4.3-56.1,1.7-71.2-7.7-15.1-9.7-22.6-27.7-22.6-54.1v-115.4h-42.2v-35.8h42.2v-48.6l37.1-11.1v59.6h56.7v35.8Z"/>
          <rect id="Rectangle" class="cls-1" x="123" y="237" width="426.2" height="426"/>
          <path id="Path" class="cls-2" d="M300.6,476.6v79.9l88.8,88.8v-65.2c0-9.4-3.7-18.4-10.4-25.1l-227.8-227.7c-6.7-6.7-10.4-15.7-10.4-25.1v-11.9c0-19.6,15.9-35.5,35.5-35.5h319.7c19.6,0,35.5,15.9,35.5,35.5v11.9c0,9.4-3.7,18.4-10.4,25.1l-121.3,121.2c-6.7,6.7-10.4,15.7-10.4,25.1v127.3"/>
        </g>
      </g>
    </g>
  </g>
</svg>