<?xml version="1.0" encoding="UTF-8"?>
<svg id="Layer_1" data-name="Layer 1" xmlns="http://www.w3.org/2000/svg" version="1.1" viewBox="0 0 2688 900">
  <defs>
    <style>
      .cls-1, .cls-2, .cls-3, .cls-4, .cls-5, .cls-6 {
        stroke-width: 0px;
      }

      .cls-1, .cls-6 {
        fill: #151e32;
      }

      .cls-2, .cls-4 {
        fill: #112032;
      }

      .cls-3, .cls-4, .cls-6 {
        fill-rule: evenodd;
      }

      .cls-3, .cls-5 {
        fill: #fff;
      }
    </style>
  </defs>
  <g id="Identity-Type">
    <rect class="cls-5" width="2688" height="900"/>
    <g id="Checkout">
      <path id="Path" class="cls-2" d="M1033.9,582.6c66.4,0,116-42.4,128.8-95.6l-60.4-15.6c-8,32.4-31.6,56-68,56s-74.8-40.8-74.8-91.6,28.4-89.2,74.8-89.2,60,25.6,66.8,53.2l62.4-14.4c-15.6-55.6-65.2-94-129.2-94s-140,57.2-140,144.8,53.6,146.4,139.6,146.4Z"/>
      <path id="Path-2" data-name="Path" class="cls-2" d="M1299.5,372.2c-28,0-51.6,17.6-66.8,38.8v-114h-60.4v280h60.4v-95.6c0-36.4,19.2-55.6,41.2-55.6s29.6,14.8,29.6,44.4v106.8h60.4v-123.2c0-50.8-22.4-81.6-64.4-81.6Z"/>
      <path id="Shape" class="cls-2" d="M1575.5,474.6c0-58.8-35.2-102.4-98.8-102.4s-102.4,42-102.4,105.6,40.8,104,103.2,104,88.4-29.6,96-69.2h-58.4c-4,13.6-16.4,22-36.4,22s-40.4-17.6-42.4-47.6h139.2v-12.4ZM1476.7,417c19.6,0,34,11.2,36.4,29.6h-75.2c4-17.2,18.8-29.6,38.8-29.6Z"/>
      <path id="Path-3" data-name="Path" class="cls-2" d="M1677.5,581.8c56.8,0,92.8-33.2,97.6-85.2h-60.4c-2.8,22.4-14.8,37.6-36.8,37.6s-40.4-20.8-40.4-57.2,15.6-57.2,40-57.2,34.8,13.6,37.6,35.2h61.2c-5.6-50.8-41.2-82.8-98.4-82.8s-101.6,43.2-101.6,105.2,38.4,104.4,101.2,104.4Z"/>
      <polygon id="Path-4" data-name="Path" class="cls-2" points="1997.1 577 1918.7 452.2 1991.9 375.4 1922.7 375.4 1847.9 456.2 1847.9 297 1787.5 297 1787.5 577 1847.9 577 1847.9 519 1876.3 490.2 1927.1 577 1997.1 577"/>
      <path id="Shape-2" data-name="Shape" class="cls-2" d="M2074.7,581.8c63.6,0,102.4-42.8,102.4-104.4s-38.8-105.2-102.4-105.2-102.4,43.2-102.4,105.2,38.8,104.4,102.4,104.4ZM2074.7,534.2c-26,0-41.2-21.2-41.2-57.2s15.2-57.2,41.2-57.2,41.2,21.2,41.2,57.2-15.6,57.2-41.2,57.2Z"/>
      <path id="Path-5" data-name="Path" class="cls-2" d="M2319.1,472.2c0,36.4-19.6,55.6-41.2,55.6s-29.2-14.4-29.2-44v-108.4h-60.4v124.4c0,50.4,25.2,80.4,67.2,80.4s49.6-16.8,64.8-37.6v34.4h59.2v-201.6h-60.4v96.8Z"/>
      <path id="Path-6" data-name="Path" class="cls-2" d="M2507.9,527.8c-16.8,0-22.4-6.8-22.4-21.2v-86.4h45.2v-44.8h-45.2v-76l-60.4,28v48h-40v44.8h40v101.6c0,33.6,20.4,55.2,62.8,55.2h59.2v-49.2h-39.2Z"/>
    </g>
    <g id="Icon">
      <path id="Combined-Shape" class="cls-1" d="M732.4,445.2c4.2,0,7.7,3.2,7.9,7.4,0,0,0,0,0,0,.8,19.2.7,29-2.2,47.6v.9c-.1.6-.2,1.1-.3,1.7,0,0,0,0,0,0-3.9,19.1-9.8,38-17.4,55.9-7.5,17.7-16.7,34.7-27.5,50.6-10.7,15.8-22.9,30.6-36.4,44.1-13.5,13.5-28.4,25.7-44.2,36.3-16,10.8-33,20-50.7,27.5-18,7.6-36.9,13.5-56.1,17.4-.2,0-.4,0-.5.1-4.2.8-8.2-1.8-9.2-5.9l-9.6-40.2c-1-4.3,1.8-8.7,6.2-9.5,16.1-3.2,31.8-8,47-14.4,14.3-6,28.1-13.5,41-22.2,12.8-8.6,24.8-18.5,35.7-29.4,10.9-10.9,20.8-22.9,29.5-35.7,8.7-12.9,16.2-26.6,22.2-40.9,6.4-15,11.1-30.5,14.3-46.3,0,0,0,0,0-.1,1.3-12.1,1.6-24.2,1.1-36.3-.2-4.5,3.3-8.2,7.8-8.3l41.5-.5ZM200.4,484.2c4.4-1,8.7,1.8,9.6,6.1,3.2,15.8,7.9,31.3,14.3,46.3,6,14.3,13.5,28,22.2,40.9,8.6,12.8,18.6,24.7,29.5,35.7,10.9,10.9,22.9,20.8,35.7,29.4,12.9,8.7,26.7,16.2,41,22.2,15.2,6.4,30.9,11.2,47,14.4,4.4.9,7.2,5.2,6.2,9.5l-9.6,40.2c-1,4.1-5.1,6.7-9.2,5.9-.2,0-.4,0-.5-.1-19.2-3.9-38-9.8-56.1-17.4-17.7-7.5-34.8-16.7-50.7-27.5-15.8-10.6-30.7-22.9-44.2-36.3-13.5-13.5-25.8-28.3-36.4-44.1-10.8-15.9-20-32.9-27.5-50.6-7.6-18-13.5-36.8-17.4-55.9,0,0,0,0,0,0-.8-4.1,1.8-8.2,5.9-9.1l40.4-9.6ZM387,151.2c4.2-.8,8.2,1.8,9.2,5.9l9.6,40.2c1,4.3-1.8,8.7-6.2,9.5-16.1,3.2-31.7,8-46.9,14.4-14.3,6-28.1,13.5-40.9,22.2-12.8,8.6-24.8,18.5-35.7,29.4-10.9,10.9-20.8,22.9-29.5,35.6-8.7,12.9-16.2,26.6-22.2,40.9-6.5,15.3-11.3,31.2-14.5,47.4-.9,4.4-5.2,7.2-9.6,6.2l-40.3-9.5c-4.1-1-6.7-5.1-5.9-9.2,0-.4.1-.7.2-1.1,3.9-19.1,9.8-37.9,17.4-55.9,7.5-17.6,16.7-34.7,27.5-50.6,10.7-15.8,22.9-30.6,36.4-44,13.5-13.5,28.3-25.7,44.1-36.3,15.9-10.8,33-20,50.7-27.5,18-7.6,36.9-13.4,56-17.4.2,0,.4,0,.5-.1ZM495.8,157.1c1-4.1,5.1-6.7,9.2-5.9.2,0,.4,0,.5.1,19.2,3.9,38,9.8,56,17.4,17.7,7.5,34.7,16.7,50.7,27.5,9.7,6.6,16.7,11.3,13.2,13.9h-26.4s-1.1,0-1.1,0c-13.9.2-26.8,4.8-37.4,12.4-8.8,1.4-11.4,2.9-21.2-1.2-15.2-6.4-30.9-11.2-46.9-14.4-4.4-.9-7.2-5.2-6.2-9.5l9.6-40.2Z"/>
      <path id="Combined-Shape-2" data-name="Combined-Shape" class="cls-6" d="M447,128c17.1,0,31,13.9,31,31s-.3,4.6-.7,6.8c0,.5-.2.9-.3,1.4h0c-.5,1.9-1.3,3.9-2.2,5.7l-22.2,58.4c-.6,1.6-1.9,2.9-3.5,3.5-3.1,1.2-6.6-.4-7.7-3.5l-22.2-58.4c-.9-1.8-1.6-3.8-2.2-5.8-.1-.4-.3-.8-.3-1.3-.5-2.2-.7-4.5-.7-6.8,0-17.1,13.9-31,31-31Z"/>
      <path id="Combined-Shape-3" data-name="Combined-Shape" class="cls-6" d="M447,772.1c17.1,0,31-13.9,31-31s-.3-4.6-.7-6.8c0-.5-.2-.9-.3-1.4h0c-.5-1.9-1.3-3.9-2.2-5.7l-22.2-58.4c-.6-1.6-1.9-2.9-3.5-3.5-3.1-1.2-6.6.4-7.7,3.5l-22.2,58.4c-.9,1.8-1.6,3.8-2.2,5.8-.1.4-.3.8-.3,1.3-.5,2.2-.7,4.5-.7,6.8,0,17.1,13.9,31,31,31Z"/>
      <path id="Combined-Shape-4" data-name="Combined-Shape" class="cls-6" d="M116.5,443.5c0-17.1,13.9-31,31-31s4.6.3,6.8.7c.5,0,.9.2,1.4.3h0c2,.5,3.9,1.2,5.8,2.2l58.4,22.2c1.6.6,2.9,1.9,3.5,3.5,1.2,3.1-.4,6.6-3.5,7.7l-58.4,22.2c-1.8.9-3.8,1.6-5.8,2.2-.4.1-.8.3-1.3.3-2.2.5-4.5.7-6.8.7-17.1,0-31-13.9-31-31Z"/>
      <path id="Combined-Shape-5" data-name="Combined-Shape" class="cls-4" d="M702,235c22.6,0,41,18.4,41,41v103c0,22.6-18.4,41-41,41h-37.1l-67,67c-20,65.2-80.2,112.8-151.7,114h-2.7c-89.2,0-161.5-72.3-161.5-161.5s72.3-161.5,161.5-161.5,85.3,18.2,114.5,47.6v-49.6c0-22.6,18.4-41,41-41h103Z"/>
      <path id="Combined-Shape-6" data-name="Combined-Shape" class="cls-3" d="M691.6,283.4l-.7,89.8-28.9-28.9-172,172c-30.7,30.7-80.4,30.7-111,0l-11-11c-12.6-12.6-18.7-29.2-18.4-45.7l-4.8-44,75.1,75.1c8.9,8.9,23.2,9,32.2.3l.3-.3,178-178-28.6-28.6,89.8-.7Z"/>
      <path id="Rectangle" class="cls-3" d="M442.2,357.2l34.6,34.6c3.1,3.1,3.1,8.2,0,11.3l-34.6,34.6c-3.1,3.1-8.2,3.1-11.3,0l-34.6-34.6c-3.1-3.1-3.1-8.2,0-11.3l34.6-34.6c3.1-3.1,8.2-3.1,11.3,0Z"/>
    </g>
  </g>
</svg>